<svg width="131" height="46" viewBox="0 0 131 46" fill="none" xmlns="http://www.w3.org/2000/svg">
<path fill-rule="evenodd" clip-rule="evenodd" d="M37.1727 0.946791C37.1727 1.09911 37.2489 1.17532 37.4012 1.17532C37.6289 1.17532 37.6297 1.25154 37.6297 22.9999C37.6297 44.7483 37.6289 44.8245 37.4012 44.8245C37.2489 44.8245 37.1727 44.9007 37.1727 45.053C37.1727 45.2804 37.0965 45.2815 21.1756 45.2815C7.47468 45.2815 5.17853 45.2583 5.17853 45.1202C5.17853 45.021 5.00245 44.929 4.72147 44.8816L4.26441 44.8044V44.186V43.5676H18.8735C26.9086 43.5676 33.7988 43.5345 34.185 43.4942C34.767 43.4333 34.8874 43.3843 34.8874 43.2086C34.8874 43.0725 34.9694 42.9962 35.1159 42.9962C35.2682 42.9962 35.3444 42.92 35.3444 42.7677C35.3444 42.6154 35.4207 42.5392 35.573 42.5392C35.8006 42.5392 35.8015 42.463 35.8015 22.9999C35.8015 3.53683 35.8006 3.46062 35.573 3.46062C35.4241 3.46062 35.3444 3.3844 35.3444 3.24214C35.3444 3.07623 35.2343 3.00504 34.8874 2.94643C34.6064 2.89901 34.4303 2.80702 34.4303 2.70784C34.4303 2.56969 32.261 2.5465 19.3474 2.5465H4.26441V2.03231C4.26441 1.59433 4.29824 1.51812 4.49294 1.51812C4.61989 1.51812 4.72147 1.4419 4.72147 1.34672C4.72147 1.25154 4.82305 1.17532 4.95 1.17532C5.10232 1.17532 5.17853 1.09911 5.17853 0.946791C5.17853 0.719404 5.25475 0.718262 21.1756 0.718262C37.0965 0.718262 37.1727 0.719404 37.1727 0.946791ZM33.9733 4.14621C33.9733 4.29852 34.0495 4.37474 34.2018 4.37474C34.4294 4.37474 34.4303 4.45095 34.4303 22.9999C34.4303 41.5489 34.4294 41.6251 34.2018 41.6251C34.0495 41.6251 33.9733 41.7013 33.9733 41.8536C33.9733 42.081 33.8971 42.0821 19.1188 42.0821H4.26441V40.0825V38.0829H4.9332C6.10179 38.0829 7.00677 37.9511 7.00677 37.781C7.00677 37.6956 7.10961 37.6258 7.2353 37.6258C7.40292 37.6258 7.46383 37.5496 7.46383 37.3401C7.46383 37.1307 7.52473 37.0545 7.69236 37.0545C7.90763 37.0545 7.92089 36.9783 7.92089 35.7404C7.92089 34.5026 7.90763 34.4264 7.69236 34.4264C7.54004 34.4264 7.46383 34.3502 7.46383 34.1979C7.46383 34.0455 7.2353 33.9693 7.2353 33.9693C7.17817 33.9122 7.2353 33.7979 7.0639 33.6837C6.8925 33.5694 6.93055 33.5123 5.63559 33.5123H4.26441V31.4555V29.3987H5.40706C6.47349 29.3987 6.54971 29.3835 6.54971 29.1702C6.54971 28.9797 6.62592 28.9417 7.00677 28.9417C7.41812 28.9417 7.46383 28.9131 7.46383 28.656C7.46383 28.4466 7.52473 28.3703 7.69236 28.3703C7.90763 28.3703 7.92089 28.2941 7.92089 27.0563C7.92089 25.8185 7.90763 25.7423 7.69236 25.7423C7.54004 25.7423 7.46383 25.666 7.46383 25.5137C7.46383 25.3614 7.38761 25.2852 7.2353 25.2852C7.08298 25.2852 7.00677 25.209 7.00677 25.0567C7.00677 24.8408 6.93055 24.8281 5.63559 24.8281H4.26441V22.7714V20.7146H5.40706C6.47349 20.7146 6.54971 20.6994 6.54971 20.4861C6.54971 20.2956 6.62592 20.2575 7.00677 20.2575H7.46383V19.8005C7.46383 19.4196 7.50188 19.3434 7.69236 19.3434C7.90569 19.3434 7.92089 19.2672 7.92089 18.2008C7.92089 17.1343 7.90569 17.0581 7.69236 17.0581C7.54004 17.0581 7.46383 16.9819 7.46383 16.8296C7.46383 16.6773 7.38761 16.6011 7.2353 16.6011C7.08298 16.6011 7.00677 16.5249 7.00677 16.3725C7.00677 16.1694 6.93055 16.144 6.32118 16.144C5.78791 16.144 5.63559 16.106 5.63559 15.9726C5.63559 15.8393 5.48328 15.8012 4.95 15.8012H4.26441V13.9158V12.0305H5.40706C6.47349 12.0305 6.54971 12.0153 6.54971 11.8019C6.54971 11.6496 6.62592 11.5734 6.77824 11.5734C6.90519 11.5734 7.00677 11.4972 7.00677 11.402C7.00677 11.3068 7.10835 11.2306 7.2353 11.2306C7.38761 11.2306 7.46383 11.1544 7.46383 11.0021C7.46383 10.8498 7.54004 10.7736 7.69236 10.7736C7.90638 10.7736 7.92089 10.6974 7.92089 9.57379C7.92089 8.45022 7.90638 8.374 7.69236 8.374C7.54004 8.374 7.46383 8.29779 7.46383 8.14548C7.46383 7.99316 7.38761 7.91695 7.2353 7.91695C7.08298 7.91695 7.00677 7.84073 7.00677 7.68842C7.00677 7.49794 6.93055 7.45989 6.54971 7.45989C6.2196 7.45989 6.09265 7.41224 6.09265 7.28849C6.09265 7.15046 5.91485 7.11709 5.17853 7.11709H4.26441V5.51738V3.91768H19.1188C33.8971 3.91768 33.9733 3.91882 33.9733 4.14621ZM43.5715 7.34562C43.5715 7.49794 43.6477 7.57415 43.8 7.57415C44.0152 7.57415 44.0286 7.65037 44.0286 8.87391V10.1737L43.6715 10.2451C43.4751 10.2844 42.5045 10.3165 41.5147 10.3165C40.5249 10.3165 39.5544 10.2844 39.358 10.2451L39.0009 10.1737V8.87391C39.0009 7.65037 39.0143 7.57415 39.2295 7.57415C39.3818 7.57415 39.458 7.49794 39.458 7.34562C39.458 7.12555 39.5342 7.11709 41.5147 7.11709C43.4953 7.11709 43.5715 7.12555 43.5715 7.34562ZM6.09265 9.05959C6.09265 9.21191 6.16886 9.28812 6.32118 9.28812C6.5104 9.28812 6.54971 9.36434 6.54971 9.7309C6.54971 10.1354 6.51886 10.1798 6.19263 10.2451C5.99621 10.2844 5.37918 10.3165 4.82145 10.3165C3.99623 10.3165 3.80735 10.3484 3.80735 10.4879C3.80735 10.5831 3.70577 10.6593 3.57882 10.6593C3.42651 10.6593 3.35029 10.7355 3.35029 10.8878C3.35029 11.0401 3.27408 11.1164 3.12176 11.1164C2.96945 11.1164 2.89323 11.1926 2.89323 11.3449C2.89323 11.4972 2.81702 11.5734 2.66471 11.5734C2.51239 11.5734 2.43618 11.6496 2.43618 11.8019C2.43618 12.0051 2.35996 12.0305 1.75059 12.0305C1.21731 12.0305 1.065 11.9924 1.065 11.8591C1.065 11.7639 0.963416 11.6877 0.836468 11.6877C0.684153 11.6877 0.607938 11.6115 0.607938 11.4592C0.607938 11.3068 0.531724 11.2306 0.379409 11.2306C0.169961 11.2306 0.150879 11.1544 0.150879 10.3165C0.150879 9.4786 0.169961 9.40239 0.379409 9.40239C0.528981 9.40239 0.607938 9.32617 0.607938 9.18186C0.607938 8.87974 0.744256 8.86454 3.60739 8.8466C6.02169 8.83152 6.09265 8.83758 6.09265 9.05959ZM10.9203 8.91173C10.6923 8.95561 10.6632 9.02966 10.6632 9.5675C10.6632 10.1551 10.6742 10.1758 11.0203 10.2451C11.2167 10.2844 15.2723 10.3165 20.033 10.3165C24.7935 10.3165 28.8492 10.2844 29.0456 10.2451C29.3911 10.176 29.4027 10.1543 29.4027 9.57379C29.4027 8.99332 29.3911 8.97161 29.0456 8.90248C28.6514 8.82364 11.3318 8.83243 10.9203 8.91173ZM44.0286 13.1731V14.3158H41.5147H39.0009V13.1731V12.0305H41.5147H44.0286V13.1731ZM10.6632 14.9871C10.6632 15.6475 10.6691 15.6595 11.0203 15.7298C11.2167 15.7691 15.2725 15.8012 20.033 15.8012C24.7936 15.8012 28.8492 15.7691 29.0456 15.7298C29.3968 15.6595 29.4027 15.6475 29.4027 14.9871V14.3158H20.033H10.6632V14.9871ZM43.5715 15.9726C43.5715 16.0678 43.6731 16.144 43.8 16.144C44.0158 16.144 44.0286 16.2202 44.0286 17.5009V18.8578L43.6715 18.9292C43.4751 18.9685 42.5045 19.0006 41.5147 19.0006C40.5249 19.0006 39.5544 18.9685 39.358 18.9292L39.0009 18.8578V17.5009C39.0009 16.2202 39.0137 16.144 39.2295 16.144C39.3564 16.144 39.458 16.0678 39.458 15.9726C39.458 15.8266 39.7627 15.8012 41.5147 15.8012C43.2668 15.8012 43.5715 15.8266 43.5715 15.9726ZM6.09265 17.7437C6.09265 17.896 6.16886 17.9723 6.32118 17.9723C6.51017 17.9723 6.54971 18.0485 6.54971 18.4131V18.8538L5.84732 18.9273C5.46111 18.9676 4.84408 19.0006 4.47615 19.0006C3.95784 19.0006 3.80735 19.0393 3.80735 19.172C3.80735 19.2672 3.70577 19.3434 3.57882 19.3434C3.42651 19.3434 3.35029 19.4196 3.35029 19.572C3.35029 19.7243 3.27408 19.8005 3.12176 19.8005C2.96945 19.8005 2.89323 19.8767 2.89323 20.029C2.89323 20.1813 2.81702 20.2575 2.66471 20.2575C2.51239 20.2575 2.43618 20.3338 2.43618 20.4861C2.43618 20.6892 2.35996 20.7146 1.75059 20.7146C1.14121 20.7146 1.065 20.6892 1.065 20.4861C1.065 20.3338 0.988783 20.2575 0.836468 20.2575C0.684153 20.2575 0.607938 20.1813 0.607938 20.029C0.607938 19.8767 0.531724 19.8005 0.379409 19.8005C0.171218 19.8005 0.150879 19.7243 0.150879 18.9435C0.150879 18.1627 0.171218 18.0865 0.379409 18.0865C0.528981 18.0865 0.607938 18.0103 0.607938 17.866C0.607938 17.5639 0.744256 17.5487 3.60739 17.5307C6.02169 17.5156 6.09265 17.5217 6.09265 17.7437ZM10.6632 20.4861C10.6632 21.0955 10.6886 21.1717 10.8918 21.1717C11.0441 21.1717 11.1203 21.2479 11.1203 21.4002C11.1203 21.6254 11.1965 21.6287 16.3765 21.6287C20.9724 21.6287 21.6327 21.6072 21.6327 21.4573C21.6327 21.3621 21.7342 21.2859 21.8612 21.2859C22.0288 21.2859 22.0897 21.2097 22.0897 21.0003C22.0897 20.7908 22.1506 20.7146 22.3183 20.7146C22.4452 20.7146 22.5468 20.6384 22.5468 20.5432C22.5468 20.448 22.4452 20.3718 22.3183 20.3718C22.1506 20.3718 22.0897 20.2956 22.0897 20.0861V19.8005H16.3765H10.6632V20.4861ZM24.375 20.029C24.375 20.1813 24.2988 20.2575 24.1465 20.2575C23.956 20.2575 23.918 20.3338 23.918 20.7146C23.918 21.0955 23.956 21.1717 24.1465 21.1717C24.2988 21.1717 24.375 21.2479 24.375 21.4002C24.375 21.6211 24.4512 21.6287 26.6603 21.6287C28.8694 21.6287 28.9456 21.6211 28.9456 21.4002C28.9456 21.2479 29.0218 21.1717 29.1741 21.1717C29.3646 21.1717 29.4027 21.0955 29.4027 20.7146C29.4027 20.3338 29.3646 20.2575 29.1741 20.2575C29.0218 20.2575 28.9456 20.1813 28.9456 20.029C28.9456 19.8081 28.8694 19.8005 26.6603 19.8005C24.4512 19.8005 24.375 19.8081 24.375 20.029ZM44.4856 22.5428C44.4856 24.2949 44.4761 24.3711 44.2571 24.3711C44.1048 24.3711 44.0286 24.4473 44.0286 24.5996C44.0286 24.8212 43.9524 24.8281 41.5147 24.8281H39.0009V22.7714V20.7146H41.7433H44.4856V22.5428ZM11.1203 25.5137C11.1203 25.666 11.0441 25.7423 10.8918 25.7423C10.6886 25.7423 10.6632 25.8185 10.6632 26.4278V27.1134H19.8044C28.8694 27.1134 28.9456 27.1115 28.9456 26.8849C28.9456 26.7326 29.0218 26.6564 29.1741 26.6564C29.3646 26.6564 29.4027 26.5802 29.4027 26.1993C29.4027 25.8185 29.3646 25.7423 29.1741 25.7423C29.0218 25.7423 28.9456 25.666 28.9456 25.5137C28.9456 25.2871 28.8694 25.2852 20.033 25.2852C11.1965 25.2852 11.1203 25.2871 11.1203 25.5137ZM6.09265 26.4278C6.09265 26.5802 6.16886 26.6564 6.32118 26.6564C6.51166 26.6564 6.54971 26.7326 6.54971 27.1134C6.54971 27.4943 6.51166 27.5705 6.32118 27.5705C6.19549 27.5705 6.09265 27.6412 6.09265 27.7276C6.09265 27.9389 5.58177 28.0276 4.36439 28.0276C3.42651 28.0276 3.35029 28.0447 3.35029 28.2561C3.35029 28.4084 3.27408 28.4846 3.12176 28.4846C2.96945 28.4846 2.89323 28.5608 2.89323 28.7131C2.89323 28.8655 2.81702 28.9417 2.66471 28.9417C2.51239 28.9417 2.43618 29.0179 2.43618 29.1702C2.43618 29.3674 2.35996 29.3987 1.87913 29.3987C1.00238 29.3987 0.607938 29.2879 0.607938 29.0417C0.607938 28.9036 0.526696 28.8274 0.379409 28.8274C0.171218 28.8274 0.150879 28.7512 0.150879 27.9704C0.150879 27.1897 0.171218 27.1134 0.379409 27.1134C0.531724 27.1134 0.607938 27.0372 0.607938 26.8849C0.607938 26.7326 0.684153 26.6564 0.836468 26.6564C0.988783 26.6564 1.065 26.5802 1.065 26.4278C1.065 26.2063 1.14121 26.1993 3.57882 26.1993C6.01644 26.1993 6.09265 26.2063 6.09265 26.4278ZM44.0286 30.5414V34.8834H41.5147H39.0009V30.5414V26.1993H41.5147H44.0286V30.5414ZM10.9203 31.1934C10.6882 31.2381 10.6632 31.3087 10.6632 31.9206V32.5981H13.7341C15.4231 32.5981 16.9656 32.566 17.1621 32.5267C17.5076 32.4576 17.5191 32.4359 17.5191 31.8554C17.5191 31.275 17.5076 31.2533 17.1621 31.1841C16.77 31.1057 11.3335 31.1137 10.9203 31.1934ZM19.6045 31.1934C19.3764 31.2373 19.3474 31.3113 19.3474 31.8491C19.3474 32.4367 19.3583 32.4575 19.7044 32.5267C19.9009 32.566 22.0027 32.5981 24.375 32.5981C26.7474 32.5981 28.8492 32.566 29.0456 32.5267C29.3911 32.4576 29.4027 32.4359 29.4027 31.8554C29.4027 31.275 29.3911 31.2533 29.0456 31.1841C28.6524 31.1055 20.0167 31.114 19.6045 31.1934ZM6.09265 35.112C6.09265 35.2643 6.16886 35.3405 6.32118 35.3405C6.51166 35.3405 6.54971 35.4167 6.54971 35.7976C6.54971 36.1784 6.51166 36.2546 6.32118 36.2546C6.19423 36.2546 6.09265 36.3308 6.09265 36.426C6.09265 36.5655 5.90377 36.5974 5.07855 36.5974C3.74942 36.5974 3.35029 36.6799 3.35029 36.9545C3.35029 37.0925 3.26905 37.1687 3.12176 37.1687C2.96945 37.1687 2.89323 37.245 2.89323 37.3973C2.89323 37.5496 2.81702 37.6258 2.66471 37.6258C2.51239 37.6258 2.43618 37.702 2.43618 37.8543C2.43618 38.0516 2.35996 38.0829 1.87913 38.0829C1.00238 38.0829 0.607938 37.972 0.607938 37.7258C0.607938 37.5877 0.526696 37.5115 0.379409 37.5115C0.169961 37.5115 0.150879 37.4353 0.150879 36.5974C0.150879 35.7595 0.169961 35.6833 0.379409 35.6833C0.531724 35.6833 0.607938 35.6071 0.607938 35.4548C0.607938 35.3025 0.684153 35.2262 0.836468 35.2262C0.963416 35.2262 1.065 35.15 1.065 35.0548C1.065 34.9077 1.42048 34.8834 3.57882 34.8834C6.01644 34.8834 6.09265 34.8904 6.09265 35.112ZM10.9203 36.6781C10.6923 36.722 10.6632 36.796 10.6632 37.3339C10.6632 37.9214 10.6742 37.9422 11.0203 38.0114C11.2167 38.0508 14.3469 38.0829 17.9762 38.0829C21.6055 38.0829 24.7356 38.0508 24.9321 38.0114C25.1797 37.962 25.2891 37.8743 25.2891 37.7258C25.2891 37.5877 25.3704 37.5115 25.5177 37.5115C25.6446 37.5115 25.7462 37.4353 25.7462 37.3401C25.7462 37.245 25.6446 37.1687 25.5177 37.1687C25.3704 37.1687 25.2891 37.0925 25.2891 36.9545C25.2891 36.8059 25.1797 36.7183 24.9321 36.6688C24.5382 36.5901 11.332 36.5988 10.9203 36.6781ZM43.2144 36.6688C43.6065 36.7472 43.7089 37.0545 43.343 37.0545C43.1754 37.0545 43.1145 37.1307 43.1145 37.3401C43.1145 37.5496 43.0536 37.6258 42.8859 37.6258C42.7009 37.6258 42.6574 37.702 42.6574 38.0257C42.6574 38.3494 42.6139 38.4257 42.4289 38.4257C42.2612 38.4257 42.2003 38.5019 42.2003 38.7113C42.2003 38.9208 42.1394 38.997 41.9718 38.997C41.8195 38.997 41.7433 39.0732 41.7433 39.2255C41.7433 39.3778 41.6671 39.454 41.5147 39.454C41.3624 39.454 41.2862 39.3778 41.2862 39.2255C41.2862 39.0732 41.21 38.997 41.0577 38.997C40.8901 38.997 40.8292 38.9208 40.8292 38.7113C40.8292 38.5019 40.7683 38.4257 40.6006 38.4257C40.4156 38.4257 40.3721 38.3494 40.3721 38.0257C40.3721 37.702 40.3286 37.6258 40.1436 37.6258C39.9913 37.6258 39.915 37.5496 39.915 37.3973C39.915 37.245 39.8388 37.1687 39.6865 37.1687C39.5189 37.1687 39.458 37.0925 39.458 36.8831V36.5974H41.1577C42.0925 36.5974 43.018 36.6295 43.2144 36.6688Z" fill="#E9D8A6"/>
<path d="M55.7954 22C55.5959 22 55.4418 21.9501 55.333 21.8504C55.2332 21.7416 55.1834 21.5874 55.1834 21.3879V13.0228C55.1834 12.8233 55.2332 12.6737 55.333 12.574C55.4418 12.4651 55.5959 12.4107 55.7954 12.4107H59.0191C59.681 12.4107 60.2387 12.5105 60.6921 12.71C61.1545 12.9004 61.5082 13.1815 61.753 13.5533C61.9979 13.9251 62.1203 14.3785 62.1203 14.9135C62.1203 15.5119 61.9434 16.0107 61.5898 16.4097C61.2452 16.8086 60.7737 17.0716 60.1752 17.1986V17.0081C60.8553 17.0898 61.3858 17.3346 61.7666 17.7426C62.1565 18.1507 62.3515 18.6902 62.3515 19.3613C62.3515 20.2136 62.0749 20.8665 61.5218 21.3199C60.9687 21.7733 60.1888 22 59.1823 22H55.7954ZM56.2715 21.1023H59.0735C59.7989 21.1023 60.343 20.9572 60.7057 20.667C61.0684 20.3769 61.2498 19.9371 61.2498 19.3477C61.2498 18.7492 61.0684 18.3094 60.7057 18.0283C60.343 17.7381 59.7989 17.593 59.0735 17.593H56.2715V21.1023ZM56.2715 16.6953H58.8558C59.5631 16.6953 60.0981 16.5502 60.4609 16.26C60.8326 15.9699 61.0185 15.5527 61.0185 15.0087C61.0185 14.4465 60.8326 14.0248 60.4609 13.7437C60.0981 13.4535 59.5631 13.3085 58.8558 13.3085H56.2715V16.6953ZM64.9329 22.0952C64.7515 22.0952 64.611 22.0453 64.5112 21.9456C64.4205 21.8368 64.3752 21.6917 64.3752 21.5103V12.982C64.3752 12.7916 64.4251 12.651 64.5248 12.5604C64.6246 12.4606 64.7651 12.4107 64.9465 12.4107H68.1701C69.1948 12.4107 69.9837 12.651 70.5368 13.1316C71.0899 13.6122 71.3665 14.2969 71.3665 15.1855C71.3665 15.7477 71.2396 16.2374 70.9857 16.6545C70.7408 17.0625 70.3781 17.3754 69.8975 17.593C69.4169 17.8016 68.8411 17.9059 68.1701 17.9059L68.3061 17.729H68.5781C68.9318 17.729 69.2401 17.8197 69.5031 18.0011C69.766 18.1824 70.0063 18.4726 70.224 18.8716L71.5297 21.3063C71.6023 21.4333 71.634 21.5602 71.6249 21.6872C71.6249 21.805 71.5841 21.9048 71.5025 21.9864C71.4209 22.0589 71.303 22.0952 71.1489 22.0952C70.9947 22.0952 70.8678 22.0589 70.768 21.9864C70.6683 21.9139 70.5821 21.8096 70.5096 21.6736L69.027 18.926C68.8184 18.5361 68.5781 18.2776 68.3061 18.1507C68.0341 18.0147 67.6759 17.9467 67.2316 17.9467H65.4905V21.5103C65.4905 21.6917 65.4452 21.8368 65.3545 21.9456C65.2638 22.0453 65.1233 22.0952 64.9329 22.0952ZM65.4905 17.0625H68.0069C68.7504 17.0625 69.3126 16.9084 69.6935 16.6001C70.0743 16.2827 70.2648 15.8112 70.2648 15.1855C70.2648 14.578 70.0743 14.12 69.6935 13.8117C69.3126 13.4943 68.7504 13.3357 68.0069 13.3357H65.4905V17.0625ZM73.1239 22.0952C72.9788 22.0952 72.8609 22.0635 72.7703 22C72.6887 21.9275 72.6388 21.8368 72.6206 21.728C72.6116 21.6101 72.6388 21.4786 72.7023 21.3335L76.4427 12.8188C76.5244 12.6374 76.6196 12.5105 76.7284 12.4379C76.8463 12.3563 76.9732 12.3155 77.1092 12.3155C77.2453 12.3155 77.3677 12.3563 77.4765 12.4379C77.5944 12.5105 77.6896 12.6374 77.7621 12.8188L81.5162 21.3335C81.5888 21.4786 81.616 21.6101 81.5978 21.728C81.5888 21.8458 81.5434 21.9365 81.4618 22C81.3802 22.0635 81.2669 22.0952 81.1218 22.0952C80.9585 22.0952 80.8271 22.0544 80.7273 21.9728C80.6276 21.8821 80.546 21.7552 80.4825 21.5919L79.4759 19.266L80.02 19.5517H74.1712L74.7289 19.266L73.736 21.5919C73.6544 21.7642 73.5682 21.8912 73.4776 21.9728C73.3869 22.0544 73.269 22.0952 73.1239 22.0952ZM77.0956 13.7165L74.9057 18.8716L74.5793 18.6132H79.612L79.3127 18.8716L77.1228 13.7165H77.0956ZM83.7947 22.0952C83.6134 22.0952 83.4728 22.0453 83.3731 21.9456C83.2824 21.8368 83.2371 21.6917 83.2371 21.5103V12.9004C83.2371 12.71 83.2824 12.5649 83.3731 12.4651C83.4728 12.3654 83.6134 12.3155 83.7947 12.3155C83.9761 12.3155 84.1121 12.3654 84.2028 12.4651C84.3025 12.5649 84.3524 12.71 84.3524 12.9004V21.5103C84.3524 21.6917 84.3071 21.8368 84.2164 21.9456C84.1257 22.0453 83.9852 22.0952 83.7947 22.0952ZM87.261 22.0952C87.0887 22.0952 86.9572 22.0499 86.8665 21.9592C86.7758 21.8594 86.7305 21.7189 86.7305 21.5375V12.8868C86.7305 12.7054 86.7758 12.5649 86.8665 12.4651C86.9572 12.3654 87.0751 12.3155 87.2201 12.3155C87.3652 12.3155 87.4695 12.3427 87.533 12.3971C87.6055 12.4425 87.6871 12.5286 87.7778 12.6556L93.7082 20.5582H93.3818V12.8596C93.3818 12.6873 93.4271 12.5558 93.5178 12.4651C93.6085 12.3654 93.7399 12.3155 93.9122 12.3155C94.0755 12.3155 94.1979 12.3654 94.2795 12.4651C94.3702 12.5558 94.4155 12.6873 94.4155 12.8596V21.5511C94.4155 21.7234 94.3747 21.8594 94.2931 21.9592C94.2205 22.0499 94.1117 22.0952 93.9666 22.0952C93.8306 22.0952 93.7218 22.068 93.6402 22.0136C93.5586 21.9592 93.4724 21.873 93.3818 21.7552L87.465 13.8525H87.7778V21.5375C87.7778 21.7189 87.7325 21.8594 87.6418 21.9592C87.5511 22.0499 87.4242 22.0952 87.261 22.0952ZM97.4111 22C97.2116 22 97.0574 21.9501 96.9486 21.8504C96.8489 21.7416 96.799 21.5874 96.799 21.3879V13.0228C96.799 12.8233 96.8489 12.6737 96.9486 12.574C97.0574 12.4651 97.2116 12.4107 97.4111 12.4107H100.635C101.297 12.4107 101.854 12.5105 102.308 12.71C102.77 12.9004 103.124 13.1815 103.369 13.5533C103.613 13.9251 103.736 14.3785 103.736 14.9135C103.736 15.5119 103.559 16.0107 103.205 16.4097C102.861 16.8086 102.389 17.0716 101.791 17.1986V17.0081C102.471 17.0898 103.001 17.3346 103.382 17.7426C103.772 18.1507 103.967 18.6902 103.967 19.3613C103.967 20.2136 103.691 20.8665 103.137 21.3199C102.584 21.7733 101.804 22 100.798 22H97.4111ZM97.8871 21.1023H100.689C101.415 21.1023 101.959 20.9572 102.321 20.667C102.684 20.3769 102.865 19.9371 102.865 19.3477C102.865 18.7492 102.684 18.3094 102.321 18.0283C101.959 17.7381 101.415 17.593 100.689 17.593H97.8871V21.1023ZM97.8871 16.6953H100.471C101.179 16.6953 101.714 16.5502 102.076 16.26C102.448 15.9699 102.634 15.5527 102.634 15.0087C102.634 14.4465 102.448 14.0248 102.076 13.7437C101.714 13.4535 101.179 13.3085 100.471 13.3085H97.8871V16.6953ZM106.562 22C106.381 22 106.24 21.9501 106.14 21.8504C106.041 21.7416 105.991 21.5965 105.991 21.4151V12.9276C105.991 12.7372 106.036 12.5921 106.127 12.4923C106.227 12.3926 106.367 12.3427 106.549 12.3427C106.73 12.3427 106.866 12.3926 106.957 12.4923C107.056 12.5921 107.106 12.7372 107.106 12.9276V21.0207H111.568C111.731 21.0207 111.858 21.066 111.948 21.1567C112.039 21.2383 112.084 21.3562 112.084 21.5103C112.084 21.6645 112.039 21.7869 111.948 21.8776C111.858 21.9592 111.731 22 111.568 22H106.562ZM116.911 22.1224C116.022 22.1224 115.247 21.9229 114.585 21.5239C113.932 21.1159 113.424 20.5446 113.062 19.8101C112.708 19.0756 112.531 18.2051 112.531 17.1986C112.531 16.4369 112.631 15.7568 112.83 15.1583C113.039 14.5508 113.334 14.0384 113.714 13.6213C114.095 13.1951 114.553 12.8687 115.088 12.642C115.632 12.4062 116.24 12.2883 116.911 12.2883C117.818 12.2883 118.597 12.4878 119.25 12.8868C119.912 13.2858 120.42 13.8525 120.774 14.587C121.136 15.3125 121.318 16.1784 121.318 17.185C121.318 17.9467 121.214 18.6313 121.005 19.2388C120.796 19.8464 120.502 20.3633 120.121 20.7894C119.74 21.2156 119.278 21.5466 118.733 21.7824C118.198 22.0091 117.591 22.1224 116.911 22.1224ZM116.911 21.1295C117.6 21.1295 118.18 20.9753 118.652 20.667C119.132 20.3587 119.5 19.9099 119.754 19.3204C120.008 18.731 120.134 18.0237 120.134 17.1986C120.134 15.9563 119.853 14.9951 119.291 14.315C118.738 13.6258 117.945 13.2813 116.911 13.2813C116.24 13.2813 115.664 13.4354 115.183 13.7437C114.712 14.052 114.349 14.5009 114.095 15.0903C113.841 15.6706 113.714 16.3734 113.714 17.1986C113.714 18.4318 113.996 19.3975 114.558 20.0957C115.12 20.7849 115.904 21.1295 116.911 21.1295ZM122.831 22.0952C122.677 22.0952 122.55 22.0544 122.45 21.9728C122.359 21.8912 122.305 21.7914 122.287 21.6736C122.278 21.5557 122.323 21.4378 122.423 21.3199L125.714 16.8857V17.3074L122.613 13.118C122.513 12.982 122.468 12.8551 122.477 12.7372C122.486 12.6193 122.536 12.5195 122.627 12.4379C122.727 12.3563 122.844 12.3155 122.98 12.3155C123.107 12.3155 123.216 12.3427 123.307 12.3971C123.398 12.4515 123.493 12.5468 123.593 12.6828L126.381 16.5049H126.027L128.802 12.6828C128.893 12.5468 128.983 12.4515 129.074 12.3971C129.165 12.3427 129.274 12.3155 129.4 12.3155C129.546 12.3155 129.663 12.3563 129.754 12.4379C129.854 12.5105 129.908 12.6102 129.917 12.7372C129.926 12.8551 129.881 12.982 129.781 13.118L126.68 17.3074V16.8857L129.972 21.3199C130.062 21.4378 130.099 21.5557 130.081 21.6736C130.072 21.7914 130.022 21.8912 129.931 21.9728C129.84 22.0544 129.718 22.0952 129.564 22.0952C129.446 22.0952 129.337 22.0635 129.237 22C129.147 21.9456 129.051 21.8549 128.952 21.728L125.973 17.661H126.408L123.429 21.728C123.339 21.8549 123.243 21.9456 123.144 22C123.044 22.0635 122.94 22.0952 122.831 22.0952Z" fill="#E9D8A6"/>
<path d="M57.528 34.081C56.904 34.081 56.37 33.949 55.926 33.685C55.482 33.421 55.14 33.046 54.9 32.56C54.666 32.074 54.549 31.495 54.549 30.823C54.549 30.319 54.615 29.869 54.747 29.473C54.885 29.071 55.08 28.732 55.332 28.456C55.59 28.174 55.905 27.958 56.277 27.808C56.649 27.652 57.066 27.574 57.528 27.574C57.9 27.574 58.254 27.628 58.59 27.736C58.926 27.838 59.217 27.991 59.463 28.195C59.541 28.255 59.592 28.324 59.616 28.402C59.646 28.474 59.649 28.546 59.625 28.618C59.607 28.684 59.571 28.741 59.517 28.789C59.469 28.831 59.409 28.852 59.337 28.852C59.265 28.852 59.184 28.822 59.094 28.762C58.878 28.588 58.641 28.459 58.383 28.375C58.125 28.291 57.846 28.249 57.546 28.249C57.072 28.249 56.67 28.351 56.34 28.555C56.01 28.753 55.761 29.044 55.593 29.428C55.425 29.812 55.341 30.277 55.341 30.823C55.341 31.369 55.425 31.837 55.593 32.227C55.761 32.611 56.01 32.905 56.34 33.109C56.67 33.307 57.072 33.406 57.546 33.406C57.84 33.406 58.119 33.364 58.383 33.28C58.647 33.19 58.89 33.058 59.112 32.884C59.202 32.824 59.283 32.797 59.355 32.803C59.427 32.803 59.487 32.824 59.535 32.866C59.583 32.908 59.616 32.962 59.634 33.028C59.658 33.094 59.658 33.163 59.634 33.235C59.616 33.307 59.571 33.37 59.499 33.424C59.247 33.64 58.95 33.805 58.608 33.919C58.272 34.027 57.912 34.081 57.528 34.081ZM62.2413 34.081C61.8153 34.081 61.4463 33.988 61.1343 33.802C60.8223 33.616 60.5793 33.355 60.4053 33.019C60.2373 32.677 60.1533 32.275 60.1533 31.813C60.1533 31.465 60.2013 31.153 60.2973 30.877C60.3933 30.595 60.5343 30.355 60.7203 30.157C60.9063 29.959 61.1253 29.809 61.3773 29.707C61.6353 29.599 61.9233 29.545 62.2413 29.545C62.6673 29.545 63.0363 29.638 63.3483 29.824C63.6603 30.01 63.9003 30.274 64.0683 30.616C64.2423 30.952 64.3293 31.351 64.3293 31.813C64.3293 32.161 64.2813 32.473 64.1853 32.749C64.0893 33.025 63.9483 33.265 63.7623 33.469C63.5763 33.667 63.3543 33.82 63.0963 33.928C62.8443 34.03 62.5593 34.081 62.2413 34.081ZM62.2413 33.496C62.5113 33.496 62.7483 33.43 62.9523 33.298C63.1563 33.166 63.3123 32.974 63.4203 32.722C63.5343 32.47 63.5913 32.167 63.5913 31.813C63.5913 31.267 63.4683 30.85 63.2223 30.562C62.9823 30.274 62.6553 30.13 62.2413 30.13C61.9653 30.13 61.7253 30.196 61.5213 30.328C61.3233 30.454 61.1673 30.643 61.0533 30.895C60.9453 31.141 60.8913 31.447 60.8913 31.813C60.8913 32.353 61.0143 32.77 61.2603 33.064C61.5063 33.352 61.8333 33.496 62.2413 33.496ZM66.7562 34.081C66.3242 34.081 65.9942 33.949 65.7662 33.685C65.5382 33.421 65.4242 33.043 65.4242 32.551V27.961C65.4242 27.841 65.4542 27.751 65.5142 27.691C65.5742 27.625 65.6642 27.592 65.7842 27.592C65.8982 27.592 65.9882 27.625 66.0542 27.691C66.1202 27.751 66.1532 27.841 66.1532 27.961V32.497C66.1532 32.821 66.2162 33.064 66.3422 33.226C66.4742 33.382 66.6662 33.46 66.9182 33.46C66.9722 33.46 67.0202 33.457 67.0622 33.451C67.1042 33.445 67.1462 33.442 67.1882 33.442C67.2542 33.436 67.2992 33.451 67.3232 33.487C67.3532 33.523 67.3682 33.595 67.3682 33.703C67.3682 33.811 67.3442 33.892 67.2962 33.946C67.2482 34 67.1702 34.036 67.0622 34.054C67.0142 34.06 66.9632 34.066 66.9092 34.072C66.8552 34.078 66.8042 34.081 66.7562 34.081ZM69.4193 34.081C68.9873 34.081 68.6573 33.949 68.4293 33.685C68.2013 33.421 68.0873 33.043 68.0873 32.551V27.961C68.0873 27.841 68.1173 27.751 68.1773 27.691C68.2373 27.625 68.3273 27.592 68.4473 27.592C68.5613 27.592 68.6513 27.625 68.7173 27.691C68.7833 27.751 68.8163 27.841 68.8163 27.961V32.497C68.8163 32.821 68.8793 33.064 69.0053 33.226C69.1373 33.382 69.3293 33.46 69.5813 33.46C69.6353 33.46 69.6833 33.457 69.7253 33.451C69.7673 33.445 69.8093 33.442 69.8513 33.442C69.9173 33.436 69.9623 33.451 69.9863 33.487C70.0163 33.523 70.0313 33.595 70.0313 33.703C70.0313 33.811 70.0073 33.892 69.9593 33.946C69.9113 34 69.8333 34.036 69.7253 34.054C69.6773 34.06 69.6263 34.066 69.5723 34.072C69.5183 34.078 69.4673 34.081 69.4193 34.081ZM72.6775 34.081C72.2155 34.081 71.8165 33.991 71.4805 33.811C71.1505 33.625 70.8925 33.364 70.7065 33.028C70.5265 32.692 70.4365 32.29 70.4365 31.822C70.4365 31.366 70.5265 30.97 70.7065 30.634C70.8865 30.292 71.1325 30.025 71.4445 29.833C71.7625 29.641 72.1285 29.545 72.5425 29.545C72.8365 29.545 73.1005 29.596 73.3345 29.698C73.5685 29.794 73.7665 29.935 73.9285 30.121C74.0965 30.307 74.2225 30.532 74.3065 30.796C74.3965 31.06 74.4415 31.357 74.4415 31.687C74.4415 31.783 74.4145 31.855 74.3605 31.903C74.3065 31.945 74.2285 31.966 74.1265 31.966H70.9945V31.489H73.9555L73.8115 31.606C73.8115 31.282 73.7635 31.009 73.6675 30.787C73.5715 30.559 73.4305 30.385 73.2445 30.265C73.0645 30.145 72.8365 30.085 72.5605 30.085C72.2545 30.085 71.9935 30.157 71.7775 30.301C71.5675 30.439 71.4085 30.634 71.3005 30.886C71.1925 31.132 71.1385 31.42 71.1385 31.75V31.804C71.1385 32.356 71.2705 32.776 71.5345 33.064C71.8045 33.352 72.1855 33.496 72.6775 33.496C72.8815 33.496 73.0825 33.469 73.2805 33.415C73.4845 33.361 73.6825 33.271 73.8745 33.145C73.9585 33.091 74.0335 33.067 74.0995 33.073C74.1715 33.073 74.2285 33.094 74.2705 33.136C74.3125 33.172 74.3395 33.22 74.3515 33.28C74.3695 33.334 74.3635 33.394 74.3335 33.46C74.3095 33.526 74.2585 33.583 74.1805 33.631C73.9825 33.775 73.7485 33.886 73.4785 33.964C73.2085 34.042 72.9415 34.081 72.6775 34.081ZM77.3505 34.081C76.9125 34.081 76.5345 33.985 76.2165 33.793C75.8985 33.601 75.6525 33.334 75.4785 32.992C75.3105 32.644 75.2265 32.242 75.2265 31.786C75.2265 31.438 75.2745 31.126 75.3705 30.85C75.4665 30.574 75.6075 30.34 75.7935 30.148C75.9795 29.95 76.2015 29.8 76.4595 29.698C76.7235 29.596 77.0205 29.545 77.3505 29.545C77.5665 29.545 77.7915 29.578 78.0255 29.644C78.2595 29.71 78.4725 29.824 78.6645 29.986C78.7245 30.028 78.7635 30.079 78.7815 30.139C78.7995 30.199 78.7995 30.259 78.7815 30.319C78.7635 30.373 78.7335 30.421 78.6915 30.463C78.6495 30.499 78.5955 30.52 78.5295 30.526C78.4695 30.532 78.4065 30.511 78.3405 30.463C78.1845 30.343 78.0255 30.259 77.8635 30.211C77.7015 30.163 77.5455 30.139 77.3955 30.139C77.1615 30.139 76.9575 30.178 76.7835 30.256C76.6095 30.328 76.4625 30.433 76.3425 30.571C76.2225 30.709 76.1295 30.88 76.0635 31.084C76.0035 31.288 75.9735 31.525 75.9735 31.795C75.9735 32.317 76.0965 32.731 76.3425 33.037C76.5885 33.337 76.9395 33.487 77.3955 33.487C77.5455 33.487 77.6985 33.463 77.8545 33.415C78.0165 33.367 78.1785 33.283 78.3405 33.163C78.4065 33.115 78.4695 33.094 78.5295 33.1C78.5895 33.106 78.6405 33.13 78.6825 33.172C78.7245 33.208 78.7515 33.256 78.7635 33.316C78.7815 33.376 78.7815 33.436 78.7635 33.496C78.7455 33.55 78.7065 33.598 78.6465 33.64C78.4545 33.796 78.2445 33.91 78.0165 33.982C77.7885 34.048 77.5665 34.081 77.3505 34.081ZM81.4175 34.081C81.0755 34.081 80.7875 34.021 80.5535 33.901C80.3255 33.775 80.1545 33.595 80.0405 33.361C79.9265 33.121 79.8695 32.83 79.8695 32.488V30.193H79.2665C79.1645 30.193 79.0865 30.169 79.0325 30.121C78.9785 30.067 78.9515 29.995 78.9515 29.905C78.9515 29.815 78.9785 29.746 79.0325 29.698C79.0865 29.65 79.1645 29.626 79.2665 29.626H79.8695V28.591C79.8695 28.471 79.9025 28.381 79.9685 28.321C80.0345 28.255 80.1245 28.222 80.2385 28.222C80.3525 28.222 80.4395 28.255 80.4995 28.321C80.5655 28.381 80.5985 28.471 80.5985 28.591V29.626H81.7325C81.8345 29.626 81.9125 29.65 81.9665 29.698C82.0205 29.746 82.0475 29.815 82.0475 29.905C82.0475 29.995 82.0205 30.067 81.9665 30.121C81.9125 30.169 81.8345 30.193 81.7325 30.193H80.5985V32.416C80.5985 32.758 80.6705 33.019 80.8145 33.199C80.9585 33.373 81.1925 33.46 81.5165 33.46C81.6305 33.46 81.7265 33.448 81.8045 33.424C81.8885 33.4 81.9575 33.388 82.0115 33.388C82.0655 33.382 82.1105 33.4 82.1465 33.442C82.1825 33.484 82.2005 33.556 82.2005 33.658C82.2005 33.73 82.1855 33.796 82.1555 33.856C82.1315 33.916 82.0865 33.958 82.0205 33.982C81.9485 34.006 81.8525 34.027 81.7325 34.045C81.6185 34.069 81.5135 34.081 81.4175 34.081ZM85.4893 34.045C85.3693 34.045 85.2793 34.012 85.2193 33.946C85.1593 33.874 85.1293 33.775 85.1293 33.649V29.968C85.1293 29.842 85.1593 29.746 85.2193 29.68C85.2793 29.614 85.3693 29.581 85.4893 29.581C85.6033 29.581 85.6933 29.614 85.7593 29.68C85.8253 29.746 85.8583 29.842 85.8583 29.968V33.649C85.8583 33.775 85.8253 33.874 85.7593 33.946C85.6993 34.012 85.6093 34.045 85.4893 34.045ZM85.4893 28.573C85.3393 28.573 85.2223 28.534 85.1383 28.456C85.0543 28.372 85.0123 28.261 85.0123 28.123C85.0123 27.979 85.0543 27.871 85.1383 27.799C85.2223 27.721 85.3393 27.682 85.4893 27.682C85.6453 27.682 85.7623 27.721 85.8403 27.799C85.9243 27.871 85.9663 27.979 85.9663 28.123C85.9663 28.261 85.9243 28.372 85.8403 28.456C85.7623 28.534 85.6453 28.573 85.4893 28.573ZM88.9761 34.081C88.6341 34.081 88.3461 34.021 88.1121 33.901C87.8841 33.775 87.7131 33.595 87.5991 33.361C87.4851 33.121 87.4281 32.83 87.4281 32.488V30.193H86.8251C86.7231 30.193 86.6451 30.169 86.5911 30.121C86.5371 30.067 86.5101 29.995 86.5101 29.905C86.5101 29.815 86.5371 29.746 86.5911 29.698C86.6451 29.65 86.7231 29.626 86.8251 29.626H87.4281V28.591C87.4281 28.471 87.4611 28.381 87.5271 28.321C87.5931 28.255 87.6831 28.222 87.7971 28.222C87.9111 28.222 87.9981 28.255 88.0581 28.321C88.1241 28.381 88.1571 28.471 88.1571 28.591V29.626H89.2911C89.3931 29.626 89.4711 29.65 89.5251 29.698C89.5791 29.746 89.6061 29.815 89.6061 29.905C89.6061 29.995 89.5791 30.067 89.5251 30.121C89.4711 30.169 89.3931 30.193 89.2911 30.193H88.1571V32.416C88.1571 32.758 88.2291 33.019 88.3731 33.199C88.5171 33.373 88.7511 33.46 89.0751 33.46C89.1891 33.46 89.2851 33.448 89.3631 33.424C89.4471 33.4 89.5161 33.388 89.5701 33.388C89.6241 33.382 89.6691 33.4 89.7051 33.442C89.7411 33.484 89.7591 33.556 89.7591 33.658C89.7591 33.73 89.7441 33.796 89.7141 33.856C89.6901 33.916 89.6451 33.958 89.5791 33.982C89.5071 34.006 89.4111 34.027 89.2911 34.045C89.1771 34.069 89.0721 34.081 88.9761 34.081ZM94.5869 34.081C94.1669 34.081 93.8039 34.015 93.4979 33.883C93.1919 33.745 92.9579 33.556 92.7959 33.316C92.6399 33.076 92.5619 32.797 92.5619 32.479C92.5619 32.275 92.5889 32.089 92.6429 31.921C92.6969 31.747 92.7779 31.585 92.8859 31.435C92.9999 31.279 93.1409 31.129 93.3089 30.985C93.4769 30.841 93.6719 30.694 93.8939 30.544L94.1819 30.355L94.0829 30.508C93.7949 30.196 93.5909 29.926 93.4709 29.698C93.3569 29.464 93.2999 29.224 93.2999 28.978C93.2999 28.702 93.3629 28.459 93.4889 28.249C93.6149 28.033 93.7949 27.868 94.0289 27.754C94.2689 27.634 94.5449 27.574 94.8569 27.574C95.2769 27.574 95.6189 27.691 95.8829 27.925C96.1469 28.153 96.2789 28.465 96.2789 28.861C96.2789 29.077 96.2369 29.281 96.1529 29.473C96.0689 29.659 95.9279 29.848 95.7299 30.04C95.5319 30.226 95.2559 30.424 94.9019 30.634L94.9199 30.445L96.6029 32.335H96.4409C96.5249 32.191 96.5969 32.026 96.6569 31.84C96.7229 31.654 96.7769 31.453 96.8189 31.237C96.8669 31.015 96.8999 30.781 96.9179 30.535C96.9299 30.433 96.9629 30.355 97.0169 30.301C97.0709 30.247 97.1489 30.22 97.2509 30.22C97.3529 30.22 97.4309 30.25 97.4849 30.31C97.5389 30.37 97.5599 30.457 97.5479 30.571C97.5239 30.871 97.4819 31.156 97.4219 31.426C97.3619 31.696 97.2839 31.948 97.1879 32.182C97.0919 32.41 96.9839 32.62 96.8639 32.812L96.8549 32.596L97.7459 33.577C97.8239 33.655 97.8599 33.733 97.8539 33.811C97.8539 33.883 97.8239 33.943 97.7639 33.991C97.7099 34.039 97.6349 34.063 97.5389 34.063C97.4549 34.063 97.3859 34.045 97.3319 34.009C97.2779 33.979 97.2149 33.931 97.1429 33.865L96.4589 33.091H96.6479C96.3959 33.403 96.0929 33.646 95.7389 33.82C95.3849 33.994 95.0009 34.081 94.5869 34.081ZM94.6229 33.478C94.9649 33.478 95.2679 33.406 95.5319 33.262C95.8019 33.118 96.0359 32.908 96.2339 32.632L96.2249 32.857L94.3169 30.769L94.6049 30.796L94.3259 30.976C94.0679 31.144 93.8609 31.303 93.7049 31.453C93.5549 31.597 93.4469 31.747 93.3809 31.903C93.3149 32.059 93.2819 32.233 93.2819 32.425C93.2819 32.755 93.3959 33.013 93.6239 33.199C93.8519 33.385 94.1849 33.478 94.6229 33.478ZM94.8569 28.141C94.5989 28.141 94.3889 28.216 94.2269 28.366C94.0649 28.516 93.9839 28.714 93.9839 28.96C93.9839 29.092 94.0019 29.215 94.0379 29.329C94.0799 29.437 94.1519 29.56 94.2539 29.698C94.3559 29.83 94.4969 30.001 94.6769 30.211L94.4879 30.22C94.7759 30.034 95.0039 29.872 95.1719 29.734C95.3399 29.59 95.4599 29.452 95.5319 29.32C95.6039 29.188 95.6399 29.047 95.6399 28.897C95.6399 28.663 95.5679 28.48 95.4239 28.348C95.2799 28.21 95.0909 28.141 94.8569 28.141ZM101.752 34C101.62 34 101.518 33.967 101.446 33.901C101.38 33.829 101.347 33.727 101.347 33.595V28.06C101.347 27.928 101.38 27.829 101.446 27.763C101.518 27.691 101.62 27.655 101.752 27.655H103.489C104.515 27.655 105.307 27.925 105.865 28.465C106.423 29.005 106.702 29.791 106.702 30.823C106.702 31.339 106.63 31.795 106.486 32.191C106.348 32.581 106.141 32.911 105.865 33.181C105.589 33.451 105.253 33.655 104.857 33.793C104.461 33.931 104.005 34 103.489 34H101.752ZM102.085 33.37H103.435C103.855 33.37 104.218 33.316 104.524 33.208C104.836 33.1 105.094 32.941 105.298 32.731C105.508 32.521 105.664 32.257 105.766 31.939C105.868 31.615 105.919 31.243 105.919 30.823C105.919 29.977 105.712 29.344 105.298 28.924C104.884 28.498 104.263 28.285 103.435 28.285H102.085V33.37ZM109.746 34.081C109.32 34.081 108.951 33.988 108.639 33.802C108.327 33.616 108.084 33.355 107.91 33.019C107.742 32.677 107.658 32.275 107.658 31.813C107.658 31.465 107.706 31.153 107.802 30.877C107.898 30.595 108.039 30.355 108.225 30.157C108.411 29.959 108.63 29.809 108.882 29.707C109.14 29.599 109.428 29.545 109.746 29.545C110.172 29.545 110.541 29.638 110.853 29.824C111.165 30.01 111.405 30.274 111.573 30.616C111.747 30.952 111.834 31.351 111.834 31.813C111.834 32.161 111.786 32.473 111.69 32.749C111.594 33.025 111.453 33.265 111.267 33.469C111.081 33.667 110.859 33.82 110.601 33.928C110.349 34.03 110.064 34.081 109.746 34.081ZM109.746 33.496C110.016 33.496 110.253 33.43 110.457 33.298C110.661 33.166 110.817 32.974 110.925 32.722C111.039 32.47 111.096 32.167 111.096 31.813C111.096 31.267 110.973 30.85 110.727 30.562C110.487 30.274 110.16 30.13 109.746 30.13C109.47 30.13 109.23 30.196 109.026 30.328C108.828 30.454 108.672 30.643 108.558 30.895C108.45 31.141 108.396 31.447 108.396 31.813C108.396 32.353 108.519 32.77 108.765 33.064C109.011 33.352 109.338 33.496 109.746 33.496ZM113.289 34.063C113.169 34.063 113.079 34.03 113.019 33.964C112.959 33.898 112.929 33.805 112.929 33.685V29.932C112.929 29.812 112.959 29.722 113.019 29.662C113.079 29.596 113.166 29.563 113.28 29.563C113.394 29.563 113.481 29.596 113.541 29.662C113.607 29.722 113.64 29.812 113.64 29.932V30.706L113.541 30.598C113.667 30.25 113.871 29.989 114.153 29.815C114.441 29.635 114.771 29.545 115.143 29.545C115.491 29.545 115.779 29.608 116.007 29.734C116.241 29.86 116.415 30.052 116.529 30.31C116.643 30.562 116.7 30.883 116.7 31.273V33.685C116.7 33.805 116.667 33.898 116.601 33.964C116.541 34.03 116.454 34.063 116.34 34.063C116.22 34.063 116.127 34.03 116.061 33.964C116.001 33.898 115.971 33.805 115.971 33.685V31.318C115.971 30.91 115.89 30.613 115.728 30.427C115.572 30.235 115.32 30.139 114.972 30.139C114.57 30.139 114.249 30.265 114.009 30.517C113.775 30.763 113.658 31.093 113.658 31.507V33.685C113.658 33.937 113.535 34.063 113.289 34.063ZM120.015 34.081C119.553 34.081 119.154 33.991 118.818 33.811C118.488 33.625 118.23 33.364 118.044 33.028C117.864 32.692 117.774 32.29 117.774 31.822C117.774 31.366 117.864 30.97 118.044 30.634C118.224 30.292 118.47 30.025 118.782 29.833C119.1 29.641 119.466 29.545 119.88 29.545C120.174 29.545 120.438 29.596 120.672 29.698C120.906 29.794 121.104 29.935 121.266 30.121C121.434 30.307 121.56 30.532 121.644 30.796C121.734 31.06 121.779 31.357 121.779 31.687C121.779 31.783 121.752 31.855 121.698 31.903C121.644 31.945 121.566 31.966 121.464 31.966H118.332V31.489H121.293L121.149 31.606C121.149 31.282 121.101 31.009 121.005 30.787C120.909 30.559 120.768 30.385 120.582 30.265C120.402 30.145 120.174 30.085 119.898 30.085C119.592 30.085 119.331 30.157 119.115 30.301C118.905 30.439 118.746 30.634 118.638 30.886C118.53 31.132 118.476 31.42 118.476 31.75V31.804C118.476 32.356 118.608 32.776 118.872 33.064C119.142 33.352 119.523 33.496 120.015 33.496C120.219 33.496 120.42 33.469 120.618 33.415C120.822 33.361 121.02 33.271 121.212 33.145C121.296 33.091 121.371 33.067 121.437 33.073C121.509 33.073 121.566 33.094 121.608 33.136C121.65 33.172 121.677 33.22 121.689 33.28C121.707 33.334 121.701 33.394 121.671 33.46C121.647 33.526 121.596 33.583 121.518 33.631C121.32 33.775 121.086 33.886 120.816 33.964C120.546 34.042 120.279 34.081 120.015 34.081ZM125.623 34.063C125.503 34.063 125.41 34.03 125.344 33.964C125.284 33.892 125.254 33.796 125.254 33.676V27.979C125.254 27.853 125.284 27.757 125.344 27.691C125.41 27.625 125.503 27.592 125.623 27.592C125.743 27.592 125.833 27.625 125.893 27.691C125.959 27.757 125.992 27.853 125.992 27.979V33.676C125.992 33.796 125.962 33.892 125.902 33.964C125.842 34.03 125.749 34.063 125.623 34.063ZM129.221 34.081C128.879 34.081 128.591 34.021 128.357 33.901C128.129 33.775 127.958 33.595 127.844 33.361C127.73 33.121 127.673 32.83 127.673 32.488V30.193H127.07C126.968 30.193 126.89 30.169 126.836 30.121C126.782 30.067 126.755 29.995 126.755 29.905C126.755 29.815 126.782 29.746 126.836 29.698C126.89 29.65 126.968 29.626 127.07 29.626H127.673V28.591C127.673 28.471 127.706 28.381 127.772 28.321C127.838 28.255 127.928 28.222 128.042 28.222C128.156 28.222 128.243 28.255 128.303 28.321C128.369 28.381 128.402 28.471 128.402 28.591V29.626H129.536C129.638 29.626 129.716 29.65 129.77 29.698C129.824 29.746 129.851 29.815 129.851 29.905C129.851 29.995 129.824 30.067 129.77 30.121C129.716 30.169 129.638 30.193 129.536 30.193H128.402V32.416C128.402 32.758 128.474 33.019 128.618 33.199C128.762 33.373 128.996 33.46 129.32 33.46C129.434 33.46 129.53 33.448 129.608 33.424C129.692 33.4 129.761 33.388 129.815 33.388C129.869 33.382 129.914 33.4 129.95 33.442C129.986 33.484 130.004 33.556 130.004 33.658C130.004 33.73 129.989 33.796 129.959 33.856C129.935 33.916 129.89 33.958 129.824 33.982C129.752 34.006 129.656 34.027 129.536 34.045C129.422 34.069 129.317 34.081 129.221 34.081Z" fill="#E9D8A6"/>
</svg>
